<svg version="1.1" id="Layer_1" xmlns="http://www.w3.org/2000/svg" xmlns:xlink="http://www.w3.org/1999/xlink" x="0px" y="0px"
	 width="100%" viewBox="0 0 1024 1024" enable-background="new 0 0 1024 1024" xml:space="preserve">
<path fill="#000000" opacity="1.000000" stroke="none" 
	d="
M544.926880,806.333740 
	C524.295166,807.285461 504.144043,807.075317 484.008331,806.297974 
	C434.461761,804.385376 385.654907,798.182251 338.908661,780.470093 
	C311.330658,770.020752 285.780701,756.376526 266.393463,733.393860 
	C249.742584,713.655029 241.110611,691.104553 240.419312,664.901428 
	C239.590759,633.495850 250.433395,606.741333 268.545532,582.006470 
	C279.279572,567.347473 290.409241,552.989929 302.094910,539.122925 
	C316.914551,521.536926 327.121857,501.567963 335.821899,480.519257 
	C348.879272,448.928619 363.349396,418.047943 383.404053,390.093292 
	C408.163696,355.580231 439.174530,328.921753 479.106537,313.452698 
	C494.836639,307.359070 511.136871,303.610107 528.057007,302.616455 
	C593.205383,298.790649 641.728821,327.721710 678.752441,379.130188 
	C704.118042,414.351227 718.869446,454.430634 731.299622,495.524445 
	C739.342346,522.113708 745.416931,549.173218 749.062500,576.686951 
	C751.945190,598.442505 754.326599,620.447510 751.126953,642.314331 
	C742.712708,699.818237 715.531494,745.252808 663.652344,773.931396 
	C635.576965,789.451355 605.639282,799.550537 573.677307,803.540771 
	C564.268616,804.715393 554.841858,805.469788 544.926880,806.333740 
M644.698792,402.784027 
	C636.356506,391.246094 626.817261,380.839172 615.630249,371.984772 
	C584.674133,347.483154 549.792419,339.308960 511.473755,348.441284 
	C471.959320,357.858551 441.814789,381.464508 417.989532,413.622681 
	C400.000641,437.903198 387.552612,465.232971 376.130035,492.971161 
	C363.475922,523.700073 347.863007,552.393494 325.300415,577.186646 
	C313.446777,590.212097 302.065552,603.814758 293.556519,619.452759 
	C287.312775,630.927673 282.140533,642.811707 281.344299,656.063232 
	C279.928986,679.618103 289.471069,698.801514 305.679810,715.079834 
	C318.826111,728.282654 335.404724,735.579468 352.631592,741.704590 
	C395.525940,756.955872 440.233276,762.051208 485.255096,764.433105 
	C510.313141,765.758789 535.489624,765.877747 560.560913,762.760315 
	C585.655701,759.639954 609.828064,753.632202 632.825806,742.883423 
	C668.216675,726.342468 692.534668,700.355225 704.140015,662.569031 
	C712.137939,636.528198 710.637146,610.278809 707.381409,583.983459 
	C704.133423,557.750061 698.196716,532.008179 690.638306,506.672485 
	C679.797363,470.333710 666.449890,435.080475 644.698792,402.784027 
z"/>
<path fill="#000000" opacity="1.000000" stroke="none" 
	d="
M568.024109,254.201050 
	C554.139038,251.841782 540.715759,250.909515 526.969543,252.070435 
	C502.237488,254.159134 479.582031,262.051422 458.189484,274.145660 
	C442.854309,282.815399 429.436768,293.942291 417.032837,306.399872 
	C405.583099,317.899200 386.923889,317.152161 377.224213,305.036102 
	C369.051270,294.827057 369.742798,280.316040 379.010681,269.778076 
	C401.099274,244.662476 427.996063,226.418045 458.898041,213.861725 
	C478.411652,205.932816 498.567871,200.432449 519.502319,198.198807 
	C555.729919,194.333496 590.944397,197.478729 623.627075,215.219879 
	C633.359314,220.502853 638.396729,229.394379 637.824524,240.367920 
	C637.193604,252.467484 630.626526,260.844818 618.880554,264.701111 
	C611.187317,267.226837 603.747314,265.709229 596.544617,262.779510 
	C587.430908,259.072510 578.142456,256.022797 568.024109,254.201050 
z"/>
<path fill="#000000" opacity="1.000000" stroke="none" 
	d="
M645.433228,550.200806 
	C637.361084,571.280029 624.721741,588.301392 605.302979,599.475525 
	C573.310486,617.885010 533.926086,610.516968 508.600616,581.418518 
	C491.811279,562.127930 483.663513,539.388611 482.586060,513.873596 
	C481.514465,488.497192 486.588501,464.757629 501.457855,443.912964 
	C517.885010,420.884399 539.936523,407.114014 568.982178,407.846375 
	C592.612000,408.442169 611.784729,419.164490 626.992249,436.971283 
	C644.002136,456.888550 651.685242,480.287933 652.363281,506.268768 
	C652.753845,521.233582 650.842163,535.778687 645.433228,550.200806 
M591.887024,507.691803 
	C596.341858,508.129944 600.358276,507.239288 604.153503,504.619476 
	C619.570618,493.977325 621.380249,468.650177 607.554810,455.411987 
	C598.529907,446.770447 586.472168,447.622162 578.882751,457.565552 
	C570.976562,467.923828 569.424927,479.366028 574.219849,491.381134 
	C577.324768,499.161469 582.075989,505.711884 591.887024,507.691803 
z"/>
</svg>